<svg xmlns="http://www.w3.org/2000/svg" viewBox="0 0 417.51 360.21"><defs><style>.cls-1{fill:#3e94c1;}</style></defs><title>logo</title><g id="Layer_2" data-name="Layer 2"><g id="Layer_1-2" data-name="Layer 1"><path class="cls-1" d="M389.21,180.1A107.44,107.44,0,0,0,310.05,0H0V66.37H53.11a34.4,34.4,0,0,1,34.4,34.4v2h70.07a33.13,33.13,0,0,1,33.14-33.12H310.05a37.89,37.89,0,0,1,37.78,35.62c1.27,22-16.53,40.05-38.57,40.05H88.06V214.9h221.2c22,0,39.84,18.05,38.57,40.05a37.88,37.88,0,0,1-37.78,35.62H190.71a33.12,33.12,0,0,1-33.13-33.12H87.51v2a34.4,34.4,0,0,1-34.4,34.41H0v66.37H310.05A107.4,107.4,0,0,0,389.21,180.1Z"/></g></g></svg>