<svg xmlns="http://www.w3.org/2000/svg" viewBox="0 0 425.04 360.21"><defs><style>.cls-1{fill:gray;}</style></defs><title>logoSmall</title><g id="Layer_2" data-name="Layer 2"><g id="Layer_1-2" data-name="Layer 1"><path class="cls-1" d="M396.75,180.1A107.44,107.44,0,0,0,317.58,0H0V66.37H60.64a34.41,34.41,0,0,1,34.41,34.4v2h70.07a33.12,33.12,0,0,1,33.13-33.12H317.58a37.89,37.89,0,0,1,37.78,35.62c1.27,22-16.53,40.05-38.57,40.05H95.05V214.9H316.79c22,0,39.84,18.05,38.57,40.05a37.88,37.88,0,0,1-37.78,35.62H198.24a33.12,33.12,0,0,1-33.12-33.12H95.05v2a34.41,34.41,0,0,1-34.41,34.41H0v66.37H317.58A107.41,107.41,0,0,0,396.75,180.1Z"/></g></g></svg>